<svg viewBox="0 0 511.99984 511" xmlns="http://www.w3.org/2000/svg"><path fill="#f24884" d="M503.098 355.758l-130.77-58.207a15 15 0 0 0-16.844 3.238c-8.687 8.918-29.195 29.832-41.746 42.156-24.965-17.523-51.64-40.562-77.77-67.207l-.21-.21c-26.246-25.739-48.445-51.477-66.113-76.653 15.14-15.285 41.804-41.602 42.136-41.93a14.998 14.998 0 0 0 3.172-16.765L157.016 9.684a14.996 14.996 0 0 0-17.532-8.418L38.832 27.786C8.285 35.558-6.625 67.542 2.809 98.16c29.113 94.508 71.02 175.078 152.832 258.008l.082.082.523.523.082.082c108.098 106.649 205.617 136.696 258.008 152.836 30.312 9.336 62.516-5.199 70.375-36.004l26.781-100.359a15.002 15.002 0 0 0-8.394-17.57zm-47.399 110.281l-.047.188c-3.535 13.968-18.543 19.09-32.484 14.793-53.438-16.465-142.871-44.016-245.73-145.477l-.481-.484C75.488 232.19 45.766 135.703 31.477 89.329c-4.297-13.958.835-28.954 14.793-32.481.046-.012.093-.024.14-.04l88.371-23.277 48.551 109.352c-12.418 12.289-36.727 36.406-43.887 43.976a15 15 0 0 0-1.629 18.555c19.79 30.07 45.641 60.832 76.832 91.43 31.04 31.64 63.012 58.562 92.461 77.855a15.005 15.005 0 0 0 18.223-1.367c7.91-7.078 32.04-31.582 44.332-44.133l109.54 48.762zM256.004 30.5C380.617 30.5 482 131.434 482 255.496c0 8.281 6.715 15 14.996 15 8.285 0 15-6.719 15-15C511.996 114.891 397.16.5 256.004.5c-8.285 0-15 6.715-15 15s6.715 15 15 15zm0 0"/><path fill="#f24884" d="M256.004 90.5C346.98 90.5 421 164.516 421 255.496c0 8.281 6.715 15 15 15 8.281 0 15-6.719 15-15C451 147.973 363.523 60.5 256.004 60.5c-8.285 0-15 6.715-15 15 0 8.281 6.715 15 15 15zm0 0"/><path fill="#f24884" d="M256.004 150.496c57.894 0 104.996 47.102 104.996 105 0 8.281 6.715 15 15 15s15-6.719 15-15c0-74.437-60.559-135-134.996-135-8.285 0-15 6.719-15 15 0 8.285 6.715 15 15 15zm0 0"/></svg>