<svg xmlns="http://www.w3.org/2000/svg" width="16" height="16"><path fill-rule="evenodd" d="M12.858 15.995c-.666 0-1.47-.167-2.354-.501-1.939-.73-4.049-2.174-5.94-4.065C2.672 9.538 1.227 7.43.495 5.491-.169 3.73-.171 2.283.492 1.622c.095-.095.192-.198.292-.303C1.388.683 2.072-.031 2.977.001c.624.026 1.228.413 1.847 1.183 1.829 2.273 1.005 3.084.05 4.023l-.168.166c-.156.157-.451.879 2.293 3.622.896.895 1.66 1.55 2.27 1.947.384.249 1.072.628 1.354.345l.169-.171c.939-.951 1.75-1.773 4.023.054.77.619 1.157 1.222 1.183 1.847.037.904-.684 1.588-1.32 2.192-.105.1-.207.197-.302.291-.329.329-.855.495-1.518.495zM2.912.538c-.643 0-1.224.611-1.738 1.151-.103.109-.203.215-.302.313-.493.493-.443 1.788.127 3.3.705 1.868 2.107 3.909 3.946 5.747s3.88 3.238 5.749 3.943c1.513.571 2.809.62 3.302.127.098-.098.204-.199.312-.302.553-.524 1.18-1.12 1.153-1.78-.019-.453-.35-.941-.982-1.45-1.895-1.522-2.424-.984-3.303-.094l-.172.174c-.42.42-1.102.326-2.028-.275-.642-.417-1.435-1.096-2.357-2.017-2.278-2.276-3.006-3.67-2.293-4.384l.172-.169c.893-.878 1.431-1.408-.092-3.302-.51-.632-.998-.963-1.452-.981L2.912.538z"/></svg>