<svg xmlns="http://www.w3.org/2000/svg" width="12" height="16"><path fill-rule="evenodd" d="M10.699 11.436l-2.492-1.274a.703.703 0 0 1-.381-.63V8.63c.06-.075.123-.16.188-.254a6.14 6.14 0 0 0 .77-1.546 1.06 1.06 0 0 0 .607-.965V4.798c0-.256-.094-.505-.261-.699V2.681c.015-.148.072-1.02-.545-1.741C8.049.316 7.179-.001 6-.001S3.951.316 3.415.94c-.617.72-.56 1.593-.546 1.741v1.418a1.08 1.08 0 0 0-.26.699v1.067c0 .325.144.627.39.83.239.967.739 1.695.914 1.929v.883a.709.709 0 0 1-.359.619l-2.327 1.297A2.414 2.414 0 0 0 0 13.535v.863c0 1.266 3.925 1.6 6 1.6s6-.334 6-1.6v-.811c0-.917-.499-1.741-1.301-2.151zm.779 2.962c0 .362-1.933 1.067-5.478 1.067S.522 14.76.522 14.398v-.863c0-.685.365-1.315.954-1.644l2.327-1.297c.39-.217.632-.635.632-1.087V8.435l-.061-.074c-.006-.008-.646-.799-.89-1.884l-.023-.106-.089-.059a.533.533 0 0 1-.242-.447V4.798c0-.149.062-.288.175-.393l.086-.079V2.665l-.002-.035c-.001-.007-.09-.746.419-1.338C4.24.787 4.978.532 6 .532c1.019 0 1.755.254 2.188.754.508.587.424 1.338.423 1.344l-.002 1.696.086.079a.536.536 0 0 1 .175.393v1.067a.53.53 0 0 1-.372.507l-.129.041-.042.132a5.662 5.662 0 0 1-.739 1.523 3.548 3.548 0 0 1-.219.288l-.065.076v1.1c0 .472.257.896.67 1.107l2.492 1.273c.624.32 1.012.961 1.012 1.675v.811z"/></svg>