<svg xmlns="http://www.w3.org/2000/svg" width="28" height="28"><path fill-rule="evenodd" fill="#F24884" d="M14.249 27.296c-2.274 0-4.521-.561-6.509-1.622L.474 27.982a.36.36 0 0 1-.369-.092.364.364 0 0 1-.085-.371l2.362-6.969a13.543 13.543 0 0 1-1.886-6.902c0-7.526 6.17-13.649 13.753-13.649C21.831-.001 28 6.122 28 13.648c0 7.526-6.169 13.648-13.751 13.648zm0-24.454c-6.007 0-10.893 4.848-10.893 10.806 0 2.291.717 4.481 2.074 6.334.07.096.089.22.051.332L4.306 23.78l3.639-1.157a.36.36 0 0 1 .31.043 10.893 10.893 0 0 0 5.994 1.787c6.006 0 10.892-4.847 10.891-10.805 0-5.958-4.886-10.806-10.891-10.806zm4.385 17.324l-.1.009a5.268 5.268 0 0 1-.561.033c-.532 0-1.468-.091-3.445-.881-2.053-.82-4.079-2.578-5.704-4.951l-.057-.084c-.425-.559-1.413-2.03-1.413-3.586 0-1.731.828-2.714 1.318-3.023.461-.292 1.505-.429 1.697-.437.158-.007.12-.007.158-.007.404 0 .695.246.916.773.091.219.953 2.299 1.002 2.396.058.115.24.472.027.896l-.045.092c-.088.177-.163.329-.332.527-.054.061-.11.128-.165.195a5.74 5.74 0 0 1-.348.395c-.038.038-.112.112-.12.141.001 0 .002.025.035.081.228.386 1.89 2.673 4.079 3.625.096.041.412.17.43.17.02 0 .054-.033.079-.062.191-.216.808-.937 1.012-1.24.181-.269.412-.407.688-.407.168 0 .327.052.475.105.363.131 2.404 1.136 2.459 1.162.267.128.478.23.601.431.179.296.108 1.113-.161 1.86-.341.949-1.842 1.727-2.525 1.787z"/></svg>