<svg xmlns="http://www.w3.org/2000/svg" width="22" height="22"><path fill-rule="evenodd" fill="#F24884" d="M21.735 10.915c-.148.158-.356.239-.618.239h-.025c-.833-.017-.846-.808-.852-1.188-.002-.107-.003-.208-.013-.291-.604-4.867-2.782-7.155-7.517-7.898-.067-.011-.148-.016-.234-.023-.353-.026-1.089-.081-1.045-.857.019-.336.166-.899.943-.899.088 0 .175.007.252.012.063.004.123.009.172.009.03 0 .048-.002.057-.003a.39.39 0 0 1 .059-.004c4.877.169 9.102 4.683 9.042 9.661-.001.067.002.143.006.223.014.331.032.742-.227 1.019zm-8.548-5.207c.729-.018 1.531.37 2.196 1.059.663.687 1.053 1.549 1.044 2.309.024.727-.236 1.129-.773 1.195a.839.839 0 0 1-.1.006c-.446 0-.794-.367-.845-.894-.111-1.129-.665-1.736-1.742-1.913-.298-.048-.624-.138-.795-.428-.116-.198-.128-.439-.033-.717.2-.595.773-.61 1.048-.617zm-1.404-2.149c.046-.282.222-.753.88-.753.166 0 .33.028.489.054.074.012.143.025.207.033 3.21.393 5.8 3.236 5.774 6.338a.286.286 0 0 1-.003.042c-.008.057-.005.142-.002.232.011.318.033.98-.678 1.092a1.35 1.35 0 0 1-.204.016c-.764 0-.807-.725-.828-1.074-.006-.093-.011-.181-.023-.252-.474-2.916-1.445-3.95-4.329-4.606a2.886 2.886 0 0 0-.247-.041c-.307-.043-.691-.098-.909-.399-.129-.179-.172-.409-.127-.682zm.426 11.699c.273.126.523.19.742.19.372 0 .673-.187.922-.571.561-.867 1.241-1.306 2.02-1.306.579 0 1.192.238 1.873.726l.331.236c.532.378 1.082.769 1.599 1.194.097.079.201.161.302.239.762.594 1.71 1.332 1.191 2.828-.593 1.708-2.523 3.205-4.129 3.205h-.028a.415.415 0 0 1-.085-.012 3.306 3.306 0 0 0-.2-.049 4.887 4.887 0 0 1-.867-.262c-3.417-1.501-6.366-3.497-8.765-5.936-2.451-2.49-4.395-5.509-5.777-8.971C.859 5.573.839 4.422 1.28 3.441c.456-1.014 1.37-1.781 2.644-2.218a2.123 2.123 0 0 1 1.468.004c1.109.415 3.739 4.074 3.804 5.29.057 1.07-.75 1.63-1.184 1.931-.764.528-.905 1.179-.471 2.174.898 2.059 2.469 3.619 4.668 4.636z"/></svg>