<svg xmlns="http://www.w3.org/2000/svg" width="23" height="29"><path fill-rule="evenodd" fill="#EF1690" d="M20.685 17.735l-8.702 11.264h-.999L2.282 17.735A10.922 10.922 0 0 1 0 11.095C0 4.977 5.149-.001 11.478-.001h.011c6.329 0 11.478 4.978 11.478 11.096 0 2.377-.811 4.735-2.282 6.64zM11.489 1.698h-.011c-5.36 0-9.72 4.215-9.72 9.397 0 2.013.686 4.01 1.932 5.623l7.793 10.088 7.794-10.088a9.252 9.252 0 0 0 1.932-5.623c0-5.182-4.36-9.397-9.72-9.397zm-.006 12.518c-1.938 0-3.515-1.525-3.515-3.399 0-1.873 1.577-3.398 3.515-3.398 1.939 0 3.516 1.525 3.516 3.398 0 1.874-1.577 3.399-3.516 3.399zm0-5.098c-.969 0-1.757.762-1.757 1.699s.788 1.7 1.757 1.7c.97 0 1.758-.763 1.758-1.7 0-.937-.788-1.699-1.758-1.699z"/></svg>